<?xml version="1.0" standalone="no"?>
        <!DOCTYPE svg PUBLIC "-//W3C//DTD SVG 1.1//EN" 
        "http://www.w3.org/Graphics/SVG/1.1/DTD/svg11.dtd">  <svg xmlns="http://www.w3.org/2000/svg" xmlns:xlink="http://www.w3.org/1999/xlink" width="40" zoomAndPan="magnify" viewBox="0 0 30 30.000001" height="40" preserveAspectRatio="xMidYMid meet" version="1.0"><defs><clipPath id="id1"><path d="M 2.363281 6.132812 L 27.765625 6.132812 L 27.765625 24.277344 L 2.363281 24.277344 Z M 2.363281 6.132812 " clip-rule="nonzero"/></clipPath></defs><g clip-path="url(#id1)"><path fill="rgb(90.589905%, 0%, 7.449341%)" d="M 24.9375 6.132812 L 5.191406 6.132812 C 3.632812 6.132812 2.371094 7.382812 2.371094 8.925781 L 2.371094 21.488281 C 2.371094 23.027344 3.632812 24.277344 5.191406 24.277344 L 24.9375 24.277344 C 26.496094 24.277344 27.757812 23.027344 27.757812 21.488281 L 27.757812 8.925781 C 27.757812 7.382812 26.496094 6.132812 24.9375 6.132812 Z M 24.9375 6.132812 " fill-opacity="1" fill-rule="nonzero"/></g><path fill="rgb(100%, 100%, 100%)" d="M 19.648438 15.207031 C 19.648438 15.503906 19.621094 15.800781 19.5625 16.089844 C 19.503906 16.382812 19.414062 16.667969 19.300781 16.941406 C 19.183594 17.21875 19.042969 17.480469 18.875 17.726562 C 18.710938 17.972656 18.519531 18.203125 18.308594 18.414062 C 18.09375 18.625 17.863281 18.8125 17.613281 18.976562 C 17.363281 19.144531 17.097656 19.285156 16.820312 19.398438 C 16.542969 19.511719 16.253906 19.597656 15.960938 19.65625 C 15.664062 19.714844 15.367188 19.742188 15.066406 19.742188 C 14.765625 19.742188 14.464844 19.714844 14.171875 19.65625 C 13.875 19.597656 13.589844 19.511719 13.3125 19.398438 C 13.03125 19.285156 12.769531 19.144531 12.519531 18.976562 C 12.269531 18.8125 12.035156 18.625 11.824219 18.414062 C 11.609375 18.203125 11.421875 17.972656 11.253906 17.726562 C 11.085938 17.480469 10.945312 17.21875 10.832031 16.941406 C 10.714844 16.667969 10.628906 16.382812 10.570312 16.089844 C 10.511719 15.800781 10.480469 15.503906 10.480469 15.207031 C 10.480469 14.910156 10.511719 14.613281 10.570312 14.320312 C 10.628906 14.027344 10.714844 13.746094 10.832031 13.46875 C 10.945312 13.195312 11.085938 12.933594 11.253906 12.6875 C 11.421875 12.4375 11.609375 12.210938 11.824219 12 C 12.035156 11.789062 12.269531 11.601562 12.519531 11.433594 C 12.769531 11.269531 13.03125 11.128906 13.3125 11.015625 C 13.589844 10.902344 13.875 10.816406 14.171875 10.757812 C 14.464844 10.699219 14.765625 10.671875 15.066406 10.671875 C 15.367188 10.671875 15.664062 10.699219 15.960938 10.757812 C 16.253906 10.816406 16.542969 10.902344 16.820312 11.015625 C 17.097656 11.128906 17.363281 11.269531 17.613281 11.433594 C 17.863281 11.601562 18.09375 11.789062 18.308594 12 C 18.519531 12.210938 18.710938 12.4375 18.875 12.6875 C 19.042969 12.933594 19.183594 13.195312 19.300781 13.46875 C 19.414062 13.746094 19.503906 14.027344 19.5625 14.320312 C 19.621094 14.613281 19.648438 14.910156 19.648438 15.207031 Z M 19.648438 15.207031 " fill-opacity="1" fill-rule="nonzero"/><path fill="rgb(90.589905%, 0%, 7.449341%)" d="M 13.230469 15.207031 C 13.230469 13.703125 14.464844 12.484375 15.980469 12.484375 C 16.699219 12.484375 17.355469 12.757812 17.84375 13.203125 C 17.21875 12.355469 16.207031 11.804688 15.066406 11.804688 C 13.167969 11.804688 11.628906 13.328125 11.628906 15.207031 C 11.628906 17.085938 13.167969 18.609375 15.066406 18.609375 C 16.207031 18.609375 17.21875 18.058594 17.84375 17.207031 C 17.355469 17.65625 16.699219 17.929688 15.980469 17.929688 C 14.464844 17.929688 13.230469 16.710938 13.230469 15.207031 Z M 13.230469 15.207031 " fill-opacity="1" fill-rule="nonzero"/><path fill="rgb(90.589905%, 0%, 7.449341%)" d="M 16.226562 14.464844 L 15.34375 13.265625 L 15.34375 14.746094 L 13.917969 15.207031 L 15.34375 15.664062 L 15.34375 17.148438 L 16.226562 15.949219 L 17.652344 16.40625 L 16.769531 15.207031 L 17.652344 14.007812 Z M 16.226562 14.464844 " fill-opacity="1" fill-rule="nonzero"/></svg>  